<?xml version="1.0" standalone="no"?>
<!DOCTYPE svg PUBLIC "-//W3C//DTD SVG 20010904//EN"
 "http://www.w3.org/TR/2001/REC-SVG-20010904/DTD/svg10.dtd">
<svg version="1.0" xmlns="http://www.w3.org/2000/svg"
 width="240.000000pt" height="240.000000pt" viewBox="0 0 240.000000 240.000000"
 preserveAspectRatio="xMidYMid meet">

<g transform="translate(0.000000,240.000000) scale(0.100000,-0.100000)"
fill="#000000" stroke="none">
<path d="M0 1200 l0 -1200 1200 0 1200 0 0 1200 0 1200 -1200 0 -1200 0 0
-1200z m476 375 c33 -20 46 -35 55 -65 14 -47 9 -56 -23 -40 -22 11 -22 11 2
-9 50 -40 57 39 8 95 -31 36 -32 37 -8 29 64 -19 96 -70 88 -141 -5 -43 17
-65 89 -88 28 -10 57 -24 63 -32 18 -21 -5 -70 -43 -89 -38 -19 -37 -19 -37 4
0 22 -37 38 -52 23 -14 -14 -13 -61 1 -75 9 -9 16 -8 31 1 27 17 27 17 28 -32
2 -38 -1 -46 -20 -52 -17 -5 -28 0 -48 25 -33 39 -44 39 -36 0 7 -36 37 -76
74 -101 46 -31 270 -21 582 24 126 18 176 20 380 15 244 -5 335 -16 533 -63
119 -29 136 -41 35 -24 -36 5 -138 14 -228 20 -254 15 -491 -6 -740 -65 -144
-34 -285 -48 -415 -43 -143 7 -208 33 -290 119 -64 67 -92 124 -110 223 -9 46
-14 59 -14 37 -2 -63 30 -155 87 -250 48 -80 57 -103 57 -143 0 -35 -6 -53
-21 -69 l-21 -21 5 50 c5 58 -22 127 -79 201 -63 81 -69 94 -70 151 l-1 55 -8
-40 c-11 -54 -2 -92 32 -143 51 -75 79 -147 76 -194 l-3 -43 -31 66 c-24 51
-45 77 -85 109 -30 23 -64 58 -75 78 -23 40 -40 97 -26 88 5 -3 7 8 4 23 -4
30 16 79 42 100 9 8 16 19 16 25 -1 6 -9 1 -18 -10 -23 -28 -56 -38 -81 -25
-26 14 -71 107 -71 148 0 46 24 90 60 108 47 24 51 18 20 -32 -17 -26 -30 -52
-30 -57 0 -6 14 12 30 41 30 52 48 67 105 90 l30 11 -35 3 c-26 2 -20 4 25 9
80 10 110 5 161 -25z m545 -196 c31 -16 43 -58 23 -80 -24 -27 -32 -24 -36 14
-2 26 -8 33 -29 35 -45 5 -64 -29 -68 -124 -2 -66 1 -90 13 -109 36 -54 106
-17 106 56 0 37 2 40 23 33 30 -9 30 -9 23 -47 -3 -18 -20 -47 -36 -62 -27
-26 -40 -30 -100 -33 -66 -4 -71 -3 -100 26 -52 52 -39 147 31 227 19 21 52
46 74 56 47 22 50 22 76 8z m518 -5 c28 -20 51 -72 51 -114 l0 -30 -66 0 -67
0 6 -40 c6 -46 22 -70 46 -70 25 0 41 20 41 53 0 22 4 28 18 25 29 -6 26 -45
-7 -78 -34 -35 -92 -41 -142 -14 -78 40 -79 203 -1 264 30 24 89 26 121 4z
m218 6 c19 0 73 -54 73 -74 0 -27 -48 -21 -52 6 -4 31 -48 52 -67 33 -18 -18
-7 -32 53 -70 77 -48 95 -116 46 -165 -15 -15 -34 -20 -79 -20 -67 0 -105 23
-116 71 -6 23 -3 27 19 31 19 4 26 1 26 -11 0 -31 30 -61 61 -61 49 0 38 34
-25 75 -80 53 -98 110 -50 158 25 26 57 37 82 31 8 -2 20 -4 29 -4z m-458 -27
c18 -16 21 -30 23 -123 2 -83 6 -105 17 -105 31 0 20 -24 -15 -34 -29 -8 -44
-7 -66 3 -23 12 -29 12 -39 0 -13 -16 -72 -19 -99 -4 -25 14 -35 63 -18 95 8
14 36 40 63 58 37 24 51 39 53 60 3 21 -1 27 -17 27 -38 0 -51 -11 -51 -45 0
-29 -2 -32 -25 -27 -51 9 -19 73 50 97 55 19 99 18 124 -2z m724 -25 c29 -15
57 -70 57 -111 0 -37 -1 -38 -30 -33 -16 3 -43 9 -60 12 -29 5 -30 4 -30 -28
0 -45 20 -71 51 -66 18 2 25 10 27 31 3 20 8 27 20 25 24 -5 26 -31 3 -59 -16
-19 -28 -24 -69 -24 -87 0 -132 44 -132 129 0 115 73 170 163 124z m156 -49
c17 -6 31 -14 31 -19 0 -4 12 -7 27 -7 26 0 63 -33 63 -57 -1 -27 -16 -37 -44
-26 -22 8 -26 14 -21 31 5 15 3 20 -6 17 -8 -3 -15 -13 -16 -24 -1 -10 -5 -45
-8 -77 l-7 -58 -41 3 c-36 3 -42 6 -41 26 0 12 1 63 2 112 2 98 3 99 61 79z
m-1986 -19 c24 0 28 -3 22 -17 -18 -42 -17 -138 2 -195 11 -32 17 -58 12 -58
-16 0 -69 72 -78 107 -16 55 -15 191 1 175 7 -7 25 -12 41 -12z m1911 -311
c50 -6 115 -19 145 -29 l56 -19 -120 7 c-165 10 -426 9 -450 -1 -19 -8 -19 -9
3 -25 22 -17 17 -18 -120 -17 -100 0 -153 -4 -176 -14 -27 -11 -30 -15 -17
-25 12 -8 -5 -11 -72 -11 -49 0 -135 -6 -192 -14 -147 -19 -374 -11 -462 18
-74 23 -124 54 -148 91 -15 23 -15 24 4 15 207 -89 404 -96 752 -26 110 23
238 45 284 50 123 12 410 13 513 0z"/>
<path d="M407 1575 c35 -22 55 -48 58 -77 0 -3 3 -10 8 -14 14 -14 7 31 -8 53
-15 22 -75 63 -91 63 -5 0 10 -11 33 -25z"/>
<path d="M412 1535 c15 -16 30 -26 33 -23 4 3 -9 16 -27 28 l-33 23 27 -28z"/>
<path d="M316 1541 c23 -4 54 -15 70 -25 l29 -17 -30 25 c-22 19 -40 26 -70
25 l-40 -2 41 -6z"/>
<path d="M273 1495 c-40 -17 -44 -29 -6 -14 35 13 80 3 123 -29 l35 -25 -25
28 c-14 15 -39 34 -57 41 -38 16 -30 17 -70 -1z"/>
<path d="M249 1423 c-12 -16 -12 -17 1 -7 8 6 22 14 30 17 13 5 12 6 -1 6 -9
1 -23 -7 -30 -16z"/>
<path d="M310 1436 c0 -2 7 -7 16 -10 8 -3 12 -2 9 4 -6 10 -25 14 -25 6z"/>
<path d="M152 1410 c0 -14 2 -19 5 -12 2 6 2 18 0 25 -3 6 -5 1 -5 -13z"/>
<path d="M550 1365 c44 -23 63 -18 40 10 -7 8 -29 15 -49 15 l-36 -1 45 -24z"/>
<path d="M222 1355 c0 -16 2 -22 5 -12 2 9 2 23 0 30 -3 6 -5 -1 -5 -18z"/>
<path d="M357 1345 c-3 -22 -8 -53 -11 -70 l-6 -30 11 30 c7 17 17 33 22 37 7
4 7 17 0 40 l-10 33 -6 -40z"/>
<path d="M431 1203 c16 -43 61 -98 116 -141 28 -23 58 -51 67 -64 9 -13 16
-17 16 -9 0 13 -59 74 -139 146 -19 16 -40 44 -48 62 -16 39 -27 45 -12 6z"/>
<path d="M240 1136 c0 -2 8 -10 18 -17 15 -13 16 -12 3 4 -13 16 -21 21 -21
13z"/>
<path d="M1471 1342 c-6 -11 -11 -34 -11 -50 0 -26 3 -29 26 -24 24 4 26 8 20
40 -7 47 -21 60 -35 34z"/>
<path d="M1208 1223 c-23 -25 -25 -103 -3 -103 18 0 27 34 23 85 -3 36 -3 37
-20 18z"/>
<path d="M1966 1294 c-3 -9 -6 -27 -6 -40 0 -19 5 -24 26 -24 24 0 26 3 20 31
-3 17 -6 35 -6 40 0 15 -28 10 -34 -7z"/>
</g>
</svg>
